<svg width="109" height="30" viewBox="0 0 109 30" fill="none" xmlns="http://www.w3.org/2000/svg">
<path d="M97.498 22.6249V6.6088H101.06V22.6249H97.498ZM100.22 22.6249V19.5396H109V22.6249H100.22ZM100.22 15.9326V12.9608H108.206V15.9326H100.22ZM100.22 9.67136V6.6088H108.886V9.67136H100.22Z" fill="#131313"/>
<path d="M78.0244 22.6249V6.6088H80.5652L86.8718 16.4317H85.5788L91.8627 6.6088H94.4262V22.6249H90.8645V12.6205L91.4997 12.7793L87.3936 19.1767H85.0343L80.9509 12.7793L81.5634 12.6205V22.6249H78.0244Z" fill="#131313"/>
<path d="M73.0839 22.8744C72.4941 22.8744 72.0026 22.6703 71.6094 22.2619C71.2161 21.8536 71.0195 21.3621 71.0195 20.7874C71.0195 20.1824 71.2161 19.6833 71.6094 19.2901C72.0026 18.8818 72.4941 18.6776 73.0839 18.6776C73.6889 18.6776 74.1804 18.8818 74.5585 19.2901C74.9517 19.6833 75.1483 20.1824 75.1483 20.7874C75.1483 21.3621 74.9517 21.8536 74.5585 22.2619C74.1804 22.6703 73.6889 22.8744 73.0839 22.8744Z" fill="#131313"/>
<path d="M61.5836 16.7947V14.027H65.0318C65.4704 14.027 65.8712 13.9363 66.2342 13.7548C66.5971 13.5733 66.8845 13.3086 67.0962 12.9608C67.308 12.6129 67.4138 12.1895 67.4138 11.6904C67.4138 11.2064 67.308 10.7905 67.0962 10.4427C66.8845 10.0948 66.5971 9.83016 66.2342 9.64868C65.8712 9.46719 65.4704 9.37645 65.0318 9.37645H61.5836V6.6088H65.5536C66.5669 6.6088 67.4819 6.81297 68.2986 7.22131C69.1153 7.62965 69.758 8.21948 70.2269 8.99079C70.7108 9.74698 70.9528 10.6468 70.9528 11.6904C70.9528 12.7339 70.7108 13.6414 70.2269 14.4127C69.758 15.1689 69.1153 15.7587 68.2986 16.1822C67.4819 16.5905 66.5669 16.7947 65.5536 16.7947H61.5836ZM58.8613 22.6249V6.6088H62.423V22.6249H58.8613Z" fill="#131313"/>
<path d="M45.0588 20.6285L51.2066 14.2766C51.5847 13.8985 51.8872 13.5506 52.1141 13.233C52.3409 12.9154 52.5073 12.6205 52.6132 12.3483C52.719 12.0609 52.772 11.7736 52.772 11.4862C52.772 10.8661 52.5678 10.3822 52.1594 10.0343C51.7662 9.67136 51.2444 9.48988 50.5941 9.48988C49.9589 9.48988 49.3842 9.6638 48.87 10.0116C48.3709 10.3444 47.887 10.8964 47.4181 11.6677L45.0361 9.60331C45.6713 8.52952 46.4805 7.72039 47.4635 7.17594C48.4465 6.63148 49.5733 6.35925 50.8437 6.35925C51.9477 6.35925 52.9005 6.56342 53.7021 6.97177C54.5187 7.38011 55.1464 7.96237 55.585 8.71856C56.0387 9.47475 56.2655 10.3595 56.2655 11.3728C56.2655 12.008 56.1824 12.5978 56.016 13.1423C55.8496 13.6716 55.5774 14.2009 55.1993 14.7303C54.8363 15.2445 54.3448 15.8116 53.7248 16.4317L49.4598 20.6739L45.0588 20.6285ZM45.0588 22.6249V20.6285L48.076 19.585H56.5831V22.6249H45.0588Z" fill="#131313"/>
<path d="M34.5338 16.7947V14.027H37.982C38.4206 14.027 38.8214 13.9363 39.1844 13.7548C39.5473 13.5733 39.8347 13.3086 40.0464 12.9608C40.2582 12.6129 40.364 12.1895 40.364 11.6904C40.364 11.2064 40.2582 10.7905 40.0464 10.4427C39.8347 10.0948 39.5473 9.83016 39.1844 9.64868C38.8214 9.46719 38.4206 9.37645 37.982 9.37645H34.5338V6.6088H38.5038C39.5171 6.6088 40.4321 6.81297 41.2488 7.22131C42.0655 7.62965 42.7082 8.21948 43.1771 8.99079C43.661 9.74698 43.903 10.6468 43.903 11.6904C43.903 12.7339 43.661 13.6414 43.1771 14.4127C42.7082 15.1689 42.0655 15.7587 41.2488 16.1822C40.4321 16.5905 39.5171 16.7947 38.5038 16.7947H34.5338ZM31.8115 22.6249V6.6088H35.3732V22.6249H31.8115Z" fill="#131313"/>
<path d="M13.4992 0.92952H23.0781L23.0751 16.0377C23.0751 16.3142 23.0423 16.7652 22.9968 17.0381C22.3274 21.0307 19.4142 23.8918 15.3694 23.897C12.3353 23.9008 5.8469 23.897 5.8469 23.897C5.8469 23.897 5.84391 17.2669 5.84839 14.4051C5.85062 13.1401 6.72653 12.2045 7.94163 12.168C9.14181 12.1315 10.7945 12.1003 10.7945 12.1003V14.0868L15.959 10.285C15.959 10.285 10.5545 10.3251 7.90286 10.3998C5.54871 10.4661 4.02574 12.4528 4.06003 14.5162C4.11818 18.0713 4.07643 22.0893 4.07643 25.6451H12.839L9.54825 29.0705H0C0 29.0705 0.0069885 19.2774 0.00624305 14.4081C0.00624305 14.0622 0.0286067 13.7148 0.066625 13.3712C0.516881 9.30174 3.984 6.17008 8.07879 6.14771C10.9891 6.13206 17.1614 6.13891 17.1614 6.13891C17.1614 9.199 17.1629 12.6227 17.1614 15.6828C17.1607 16.9427 16.2475 17.8693 14.9922 17.8752C13.5929 17.8819 11.8491 17.8774 11.8491 17.8774V15.9505L7.07818 19.6472C7.07818 19.6472 12.1974 19.6845 15.0197 19.6472C17.3128 19.6166 18.9475 17.8872 18.9475 15.5844C18.9475 11.9913 18.9475 4.32731 18.9475 4.32731H10.2578L13.4992 0.92952Z" fill="#493FEE"/>
</svg>
